<?xml version="1.0" encoding="utf-8"?>
<!-- Svg Vector Icons : http://www.onlinewebfonts.com/icon -->
<!DOCTYPE svg PUBLIC "-//W3C//DTD SVG 1.1//EN" "http://www.w3.org/Graphics/SVG/1.1/DTD/svg11.dtd">
<svg version="1.1" xmlns="http://www.w3.org/2000/svg" xmlns:xlink="http://www.w3.org/1999/xlink" x="0px" y="0px" viewBox="0 0 1000 1000" enable-background="new 0 0 1000 1000" width="30px" height="16px" xml:space="preserve">
<metadata> Svg Vector Icons : http://www.onlinewebfonts.com/icon </metadata>
<g><g><path d="M943.4,563.1c2.7-19.9,4.2-40.1,4.2-60.7c0-247.2-201.5-447.6-450-447.6c-24.7,0-48.9,2-72.5,5.9C382.9,33.1,332.6,17,278.5,17C130.1,17,10,137.3,10,285.6c0,54,15.9,104.1,43.2,146.2c-3.7,23-5.6,46.6-5.6,70.6c0,247.3,201.4,447.7,450,447.7c28.1,0,55.4-2.7,81.9-7.5c41.2,25.6,89.8,40.5,141.9,40.5C869.8,983,990,862.7,990,714.4C990,658.3,972.8,606.2,943.4,563.1z M539.7,832.3c-143,7.5-209.9-24.2-271.2-81.7c-68.5-64.2-41-137.5,14.8-141.3c55.7-3.7,89.2,63.2,119,81.8c29.7,18.5,142.8,60.8,202.5-7.5c65-74.3-43.2-112.8-122.6-124.4c-113.3-16.8-256.4-78.1-245.3-198.9C248,239.6,339.5,177.7,435.7,169c122.6-11.1,202.5,18.6,265.6,72.5c73,62.3,33.5,131.9-13,137.5c-46.3,5.6-98.4-102.4-200.6-104c-105.3-1.7-176.5,109.6-46.5,141.2c130.1,31.6,269.4,44.6,319.6,163.5C811,698.5,682.8,824.8,539.7,832.3z"/></g><g></g><g></g><g></g><g></g><g></g><g></g><g></g><g></g><g></g><g></g><g></g><g></g><g></g><g></g><g></g></g>
</svg>
