<?xml version="1.0" encoding="utf-8"?>
<!-- Svg Vector Icons : http://www.onlinewebfonts.com/icon -->
<!DOCTYPE svg PUBLIC "-//W3C//DTD SVG 1.1//EN" "http://www.w3.org/Graphics/SVG/1.1/DTD/svg11.dtd">
<svg version="1.1" xmlns="http://www.w3.org/2000/svg" xmlns:xlink="http://www.w3.org/1999/xlink" x="0px" y="0px" viewBox="0 0 1000 1000" enable-background="new 0 0 1000 1000" width="30px" height="16px" xml:space="preserve">
<metadata> Svg Vector Icons : http://www.onlinewebfonts.com/icon </metadata>
<g><g><path d="M980.2,263.1l-116.4-89.7c-6.6-4.6-15.9-8.6-25.5-11.6c-9.7-3-19.7-4.8-27.8-4.8h-335l39.2,245h295.7c8,0,18.1-1.8,27.7-4.8c9.7-3,19-7.1,25.5-11.6l116.4-89.8c6.6-4.5,9.9-10.4,9.9-16.4S986.7,267.6,980.2,263.1L980.2,263.1z M426.5,59h-49C364,59,353,70,353,83.5V255H189.5c-8.1,0-18.1,1.8-27.8,4.9c-9.7,2.9-19,7-25.5,11.6L19.8,361.1c-6.6,4.5-9.8,10.4-9.8,16.4c0,5.9,3.2,11.9,9.8,16.4l116.4,89.8c6.6,4.5,15.8,8.6,25.5,11.5c9.7,3,19.6,4.8,27.8,4.8H353v416.5c0,13.5,11,24.5,24.5,24.5h49c13.5,0,24.5-11,24.5-24.5v-833C451,70,440,59,426.5,59L426.5,59z"/></g></g>
</svg>
